<?xml version="1.0" encoding="UTF-8"?>
<svg id="Layer_1" data-name="Layer 1" xmlns="http://www.w3.org/2000/svg" xmlns:xlink="http://www.w3.org/1999/xlink" viewBox="0 0 1920 598">
  <defs>
    <style>
      .cls-1 {
        fill: #3abdff;
      }

      .cls-2 {
        fill: #8d989d;
      }

      .cls-3 {
        fill: url(#linear-gradient);
      }

      .cls-4 {
        fill: #4739e6;
      }

      .cls-5 {
        fill: #00042d;
      }
    </style>
    <linearGradient id="linear-gradient" x1="179.16" y1="201.35" x2="179.16" y2=".46" gradientUnits="userSpaceOnUse">
      <stop offset="0" stop-color="#4739e6"/>
      <stop offset=".07" stop-color="#4361f7"/>
      <stop offset="1" stop-color="#3abdff"/>
    </linearGradient>
  </defs>
  <g>
    <path class="cls-2" d="M698.91,411.48c41.43,0,59.69,25.75,61.39,48.71v2.99h-23.36c-1.2-15.27-11.08-32.64-37.83-32.64s-44.92,21.16-44.92,55.2,17.87,55.2,44.92,55.2,36.53-18.87,38.33-34.04h23.36v3c-2.3,22.66-20.16,50.11-61.89,50.11s-69.37-28.55-69.37-74.26,27.35-74.27,69.37-74.27Z"/>
    <path class="cls-2" d="M770.01,454.5h23.36l28.45,79.75h2l28.45-79.75h23.06v2.99l-45.62,117.29c-7.09,18.37-15.97,22.76-35.24,22.76h-12.48v-17.57h9.38c9.28,0,12.08-1.5,15.47-9.18l3.69-8.88-40.53-104.41v-2.99Z"/>
    <path class="cls-2" d="M887.59,413.88h23.66v52.5h2c4.29-6.49,13.58-14.07,31.94-14.07,26.25,0,47.11,17.57,47.11,53.7s-20.86,53.8-47.11,53.8c-18.37,0-28.25-7.49-32.84-15.27h-2v13.08h-22.76v-143.74ZM939.4,541.95c17.47,0,29.05-12.58,29.05-35.94s-11.58-35.84-29.05-35.84-29.15,12.58-29.15,35.84,11.68,35.94,29.15,35.94Z"/>
    <path class="cls-2" d="M1054.91,452.11c30.94,0,48.41,18.77,48.41,49.81v9.88h-76.66c.4,18.77,10.48,31.14,28.15,31.14s24.16-9.78,25.65-18.07h20.76v2.99c-2.59,13.48-14.67,32.14-46.12,32.14s-51.11-18.47-51.11-54,19.86-53.9,50.91-53.9ZM1080.96,495.53c-.2-15.57-8.58-26.55-26.25-26.55s-26.45,11.28-27.75,26.55h54Z"/>
    <path class="cls-2" d="M1120.37,454.5h22.76v15.17h2c4.29-10.08,13.08-18.37,34.04-16.17v19.96c-20.86-2.6-35.14,3.79-35.14,29.25v54.9h-23.66v-103.11Z"/>
    <path class="cls-2" d="M1232.47,452.31c26.95,0,43.02,12.08,45.22,29.54v3h-21.56c-.8-11.38-9.68-16.27-23.06-16.27s-21.16,4.99-21.16,13.28,7.19,11.48,16.27,13.08l18.07,2.9c20.66,3.39,35.04,10.58,35.04,29.84s-15.47,32.34-44.82,32.34-46.42-12.78-48.91-31.24v-2.99h21.96c1.1,12.08,12.18,17.97,26.95,17.97s22.46-5.69,22.46-14.47-7.39-11.48-18.37-13.38l-17.97-2.89c-19.36-3.19-32.94-12.08-32.94-30.25s16.07-30.44,42.82-30.44Z"/>
    <path class="cls-2" d="M1342.59,452.11c30.94,0,48.41,18.77,48.41,49.81v9.88h-76.66c.4,18.77,10.48,31.14,28.15,31.14s24.16-9.78,25.65-18.07h20.76v2.99c-2.59,13.48-14.67,32.14-46.12,32.14s-51.11-18.47-51.11-54,19.86-53.9,50.91-53.9ZM1368.64,495.53c-.2-15.57-8.58-26.55-26.25-26.55s-26.45,11.28-27.75,26.55h54Z"/>
    <path class="cls-2" d="M1454.91,452.11c29.55,0,44.22,17.57,46.02,34.84v2.99h-22.16c-1-9.78-7.49-20.26-23.66-20.26-17.57,0-28.55,13.28-28.55,36.33s10.88,36.43,28.55,36.43c16.67,0,22.76-10.68,24.26-21.46h22.16v3c-2.1,18.47-16.67,36.03-46.62,36.03-31.44,0-52.2-19.56-52.2-54s20.86-53.9,52.2-53.9Z"/>
    <path class="cls-2" d="M1610.5,557.62h-22.76v-13.28h-2c-3.49,5.99-11.98,15.47-31.64,15.47-22.86,0-37.73-12.78-37.73-36.83v-68.48h23.66v67.08c0,13.88,8.18,20.36,20.56,20.36,14.07,0,26.25-8.59,26.25-27.95v-59.49h23.66v103.11Z"/>
    <path class="cls-2" d="M1632.48,454.5h22.76v15.17h2c4.29-10.08,13.08-18.37,34.04-16.17v19.96c-20.86-2.6-35.14,3.79-35.14,29.25v54.9h-23.66v-103.11Z"/>
    <path class="cls-2" d="M1703.8,413.98h23.96v23.16h-23.96v-23.16ZM1704,454.5h23.66v103.11h-23.66v-103.11Z"/>
    <path class="cls-2" d="M1739.86,454.5h19.66v-27.95h23.36v27.95h22.56v16.27h-22.56v61.19c0,5.49,2.7,8.48,8.49,8.48h13.48v17.17h-18.97c-16.57,0-26.35-8.58-26.35-24.95v-61.89h-19.66v-16.27Z"/>
    <path class="cls-2" d="M1814.69,454.5h23.36l28.45,79.75h2l28.45-79.75h23.06v2.99l-45.62,117.29c-7.09,18.37-15.97,22.76-35.24,22.76h-12.48v-17.57h9.38c9.28,0,12.08-1.5,15.47-9.18l3.69-8.88-40.53-104.41v-2.99Z"/>
  </g>
  <g>
    <path class="cls-5" d="M629.53,339.61V69.41h167.38v32.27h-131.35v81.06h116.34v32.27h-116.34v124.6h-36.03Z"/>
    <path class="cls-5" d="M1001.59,242.04c0,67.55-45.03,103.2-101.7,103.2s-101.7-35.65-101.7-103.2,45.03-103.2,101.7-103.2,101.7,35.65,101.7,103.2ZM832.33,242.04c0,46.91,28.15,73.18,67.55,73.18s67.55-26.27,67.55-73.18-28.15-73.18-67.55-73.18-67.55,26.27-67.55,73.18Z"/>
    <path class="cls-5" d="M1026.31,339.61v-195.15h33.78v26.27c0,1.88.75,2.63,2.63,2.63,2.25,0,3-1.13,3.75-3,8.63-18.76,22.14-26.65,48.79-26.65h21.77v33.03h-27.02c-32.65,0-49.91,14.64-49.91,52.16v110.71h-33.78Z"/>
    <path class="cls-5" d="M1331.23,277.69c-5.63,29.65-31.15,67.55-93.07,67.55s-99.08-39.4-99.08-103.2,38.28-103.2,98.33-103.2,93.07,39.4,93.07,93.82v18.76h-157.81c2.25,43.91,29.27,64.55,65.49,64.55s52.35-16.14,57.79-38.28h35.28ZM1173.61,223.27h123.09c-1.5-36.03-23.64-55.17-59.29-55.17-32.27,0-58.17,18.39-63.8,55.17Z"/>
    <path class="cls-5" d="M1513.99,206.39h-34.53c-2.63-26.65-20.64-38.65-52.16-38.65s-44.66,12.01-44.66,28.15,11.63,21.77,38.28,26.83l27.77,5.25c35.65,6.76,66.8,18.39,66.8,57.04s-29.65,60.23-79.93,60.23-88-21.77-91.2-68.3h34.34c2.63,25.9,24.21,39.41,56.86,39.41s46.16-12.57,46.16-29.46-13.51-22.71-40.53-27.77l-27.77-5.25c-38.09-7.13-64.55-20.08-64.55-57.61s32.27-57.42,78.43-57.42,82.94,19.89,86.69,67.55Z"/>
    <path class="cls-5" d="M1588.66,174.49v-30.02h45.03v-52.54h33.78v52.54h56.29v30.02h-56.29v129.47c0,1.88.37,3,1.5,4.13,1.13,1.12,2.25,1.5,4.13,1.5h50.66v30.02h-33.78c-38.09,0-56.29-18.2-56.29-56.29v-108.83h-45.03Z"/>
    <path class="cls-5" d="M1920,277.69c-5.63,29.65-31.15,67.55-93.07,67.55s-99.08-39.4-99.08-103.2,38.28-103.2,98.32-103.2,93.07,39.4,93.07,93.82v18.76h-157.81c2.25,43.91,29.27,64.55,65.49,64.55s52.35-16.14,57.79-38.28h35.28ZM1762.38,223.27h123.09c-1.5-36.03-23.64-55.17-59.3-55.17-32.27,0-58.17,18.39-63.8,55.17Z"/>
    <path class="cls-5" d="M1536.65,69.41h34.59v40.13h-34.59v-40.13ZM1537.22,144.89h33.63v194.72h-33.63v-194.72Z"/>
  </g>
  <g>
    <polygon class="cls-4" points="358.87 414.21 214.99 213.32 .4 213.32 143.89 414.21 358.87 414.21"/>
    <polygon class="cls-3" points="358.32 .46 147.34 .46 0 201.35 214.49 201.35 358.32 .46"/>
    <path class="cls-1" d="M369.78,413.31l147.27-206.33L369.14.46v.06c23.19,60.41,35.89,129.56,35.89,207.26s-12.48,145.53-35.25,205.54Z"/>
  </g>
</svg>